# xmcd
#
# Track frame offsets:
#	150
#	15207
#	32394
#	52907
#	73687
#	84972
#	112790
#	129350
#	141890
#	163885
#	181767
#	198005
#	217080
#	229762
#
# Disc length: 3411 seconds
#
# Revision: 0
# Processed by: cddbd v1.5.1PL0 Copyright (c) Steve Scherf et al.
# Submitted via: EasyCDDAExtractor 8.0.1.1
#
DISCID=a80d510e
DTITLE=Gary Schnitzer - Dances With Strings
DYEAR=2004
DGENRE=Acid Jazz
TTITLE0=The Breeze And I
TTITLE1=The Girl From Ipanema
TTITLE2=Tango! Hernando's Hideaway
TTITLE3=Mona Lisa
TTITLE4=Brahm's Hungarian Dance No. 5
TTITLE5=Strauss Waltz: Tale Of The Vienna Woods
TTITLE6=Crazy
TTITLE7=Don't Get Aound Much Anymore
TTITLE8=Chattanooga Choo Choo
TTITLE9=Dream A Little Dream Of Me
TTITLE10=Night And Day
TTITLE11=Moon River
TTITLE12=In The Mood
TTITLE13=A Day In The Life Of A Fool
EXTD=
EXTT0=
EXTT1=
EXTT2=
EXTT3=
EXTT4=
EXTT5=
EXTT6=
EXTT7=
EXTT8=
EXTT9=
EXTT10=
EXTT11=
EXTT12=
EXTT13=
PLAYORDER=
